<svg width="4054" height="1976" viewBox="0 0 4054 1976" fill="none" xmlns="http://www.w3.org/2000/svg">
<rect width="4054" height="1976" fill="white"/>
<path d="M2115.53 986.693L2018.33 1204.83H1985.21L1939.88 1093.58L1883.65 1204.83H1850.53L1782.53 1038.61L1742 1015.05V1001.53L1816.53 964.88L1833.09 1030.76L1886.27 1160.33L1928.98 1068.27L1916.78 1038.61L1876.24 1015.05V1001.53L1950.77 964.88L1967.34 1030.76L2019.2 1156.84L2071.51 1034.68L2010.92 990.619L2019.64 973.169H2115.53V986.693Z" fill="black"/>
<path d="M2259.52 1204.83H2137.92V1191.3L2176.71 1160.76V1033.37L2137.92 1006.32V992.801L2212.45 964.88H2229.01V1172.11L2268.24 1187.38L2259.52 1204.83ZM2201.12 834C2209.83 834 2216.95 837.199 2222.47 843.598C2228.29 849.996 2231.19 857.995 2231.19 867.592C2231.19 874.282 2229.16 880.68 2225.09 886.788C2221.02 892.605 2215.94 897.259 2209.83 900.749C2203.73 904.239 2197.78 905.984 2191.96 905.984C2183.25 905.984 2175.98 902.785 2170.17 896.386C2164.65 889.987 2161.89 881.989 2161.89 872.391C2161.89 865.702 2163.92 859.449 2167.99 853.632C2172.06 847.524 2177.15 842.725 2183.25 839.235C2189.35 835.745 2195.31 834 2201.12 834Z" fill="black"/>
<path d="M2431.54 1205.7C2424.86 1208.03 2416.72 1209.19 2407.13 1209.19C2383.02 1209.19 2365.29 1202.94 2353.96 1190.43C2342.92 1177.63 2337.4 1158 2337.4 1131.53V1004.14H2290.32V986.257L2373.14 889.842H2389.7V986.257H2468.15V1004.14H2389.7V1136.77C2389.7 1160.33 2401.03 1172.11 2423.7 1172.11C2429.8 1172.11 2435.61 1170.8 2441.13 1168.18C2446.94 1165.56 2454.06 1160.91 2462.49 1154.22L2475.56 1170.8L2431.54 1205.7Z" fill="black"/>
<path d="M2630.31 1205.7C2623.63 1208.03 2615.5 1209.19 2605.91 1209.19C2581.79 1209.19 2564.06 1202.94 2552.73 1190.43C2541.69 1177.63 2536.17 1158 2536.17 1131.53V1004.14H2489.1V986.257L2571.91 889.842H2588.47V986.257H2666.93V1004.14H2588.47V1136.77C2588.47 1160.33 2599.8 1172.11 2622.47 1172.11C2628.57 1172.11 2634.38 1170.8 2639.9 1168.18C2645.71 1165.56 2652.83 1160.91 2661.26 1154.22L2674.34 1170.8L2630.31 1205.7Z" fill="black"/>
<path d="M2935 986.693L2824.73 1204.83L2734.07 1320L2717.51 1306.91C2734.07 1289.17 2746.57 1273.61 2754.99 1260.23C2763.71 1246.85 2769.81 1233.33 2773.3 1219.66C2776.79 1206.28 2778.53 1190.28 2778.53 1171.67L2723.61 1038.61L2683.08 1015.05V1001.53L2757.61 964.88L2774.17 1030.76L2827.34 1160.76L2888.8 1032.94L2830.83 990.619L2839.55 973.169H2935V986.693Z" fill="black"/>
<path d="M3193.19 1205.61H3110.27V1167.46L3060.96 1206.49C3055.14 1208.83 3047.86 1210 3039.14 1210C3014.11 1210 2995.93 1203.71 2984.58 1191.14C2973.53 1178.57 2968 1163.52 2968 1145.98C2968 1135.45 2971.78 1125.07 2979.35 1114.84C2986.91 1104.61 2997.68 1094.96 3011.64 1085.9H3110.27V1057.83C3110.27 1038.83 3105.18 1025.38 3095 1017.49C3085.1 1009.59 3071.43 1005.65 3053.97 1005.65C3035.94 1005.65 3013.82 1016.61 2987.64 1038.54L2974.55 1021.87L3037.39 971.881C3049.03 969.542 3062.99 968.373 3079.29 968.373C3105.76 968.373 3126.27 974.951 3140.82 988.107C3155.37 1000.97 3162.64 1019.83 3162.64 1044.68V1172.73L3201.92 1188.07L3193.19 1205.61ZM3053.1 1172.73C3070.85 1172.73 3089.9 1164.54 3110.27 1148.17V1103.88H3033.03C3029.24 1108.55 3026.48 1113.23 3024.73 1117.91C3023.28 1122.59 3022.55 1127.7 3022.55 1133.26C3022.55 1144.08 3025.32 1153.43 3030.84 1161.32C3036.37 1168.92 3043.79 1172.73 3053.1 1172.73Z" fill="black"/>
<path d="M3507.01 1206.05H3424.09V1058.27C3424.09 1042.19 3421.62 1030.94 3416.67 1024.5C3411.73 1018.07 3402.85 1014.86 3390.05 1014.86C3380.45 1014.86 3370.85 1016.61 3361.25 1020.12C3351.94 1023.63 3340.88 1030.35 3328.08 1040.29V1173.16L3367.36 1188.51L3358.63 1206.05H3236.87V1192.46L3275.71 1161.76V1037.66L3236.87 1014.86V1001.26L3311.5 964.426L3325.9 1021.43L3387.87 971.881C3393.98 969.542 3401.98 968.373 3411.87 968.373C3431.66 968.373 3447.37 974.512 3459.01 986.791C3470.64 998.777 3476.46 1015.15 3476.46 1035.91V1172.73L3515.74 1188.51L3507.01 1206.05Z" fill="black"/>
<path d="M3674.92 1206.49C3668.23 1208.83 3660.08 1210 3650.48 1210C3626.33 1210 3608.59 1203.71 3597.24 1191.14C3586.18 1178.28 3580.66 1158.55 3580.66 1131.94V1003.89H3533.52V985.914L3616.44 889H3633.03V985.914H3711.58V1003.89H3633.03V1137.2C3633.03 1160.89 3644.37 1172.73 3667.07 1172.73C3673.18 1172.73 3679 1171.41 3684.52 1168.78C3690.34 1166.15 3697.47 1161.47 3705.91 1154.75L3719 1171.41L3674.92 1206.49Z" fill="black"/>
<path d="M610.307 1252.65C705.159 1165.7 738.27 1041.48 742.969 990.244L872.676 1151.84C737.997 1259.94 712.218 1283.55 663.898 1319.42L610.307 1252.65Z" fill="#D9D9D9"/>
<circle cx="1039.66" cy="1019.67" r="300.49" transform="rotate(51.247 1039.66 1019.67)" fill="#5288E5"/>
<path d="M590.047 1227.42C684.932 1140.5 738.496 1021.11 743.337 970.046L882.762 1143.75C748.083 1251.85 712.209 1283.55 663.898 1319.42L590.047 1227.42Z" fill="#5288E5"/>
<path d="M738.2 1411.99C843.583 1338.15 967.903 1313.11 1018.8 1319.43C983.294 1275.19 981.235 1267.46 867.912 1126.28C733.233 1234.38 700.7 1269.2 655.22 1308.61L738.2 1411.99Z" fill="#5288E5"/>
<rect x="573.844" y="1240.42" width="236.817" height="43.9378" transform="rotate(51.247 573.844 1240.42)" fill="black"/>
<rect x="530.872" y="1274.92" width="236.817" height="43.1931" transform="rotate(51.247 530.872 1274.92)" fill="black"/>
<path d="M653.339 1279.65C623.808 1226.08 616.583 1203.29 617.876 1200.1L582.555 1233.43L730.794 1418.11L770.884 1390.73C744.787 1377 682.87 1333.23 653.339 1279.65Z" fill="black"/>
<path d="M639.641 1461.59C642.422 1465.05 639.642 1470.15 635.224 1469.69L571.061 1463.01C569.733 1462.87 568.516 1462.21 567.68 1461.16L506.675 1385.16C505.862 1384.15 505.475 1382.86 505.596 1381.57L511.737 1315.97C512.156 1311.49 517.802 1309.8 520.614 1313.3L639.641 1461.59Z" fill="black"/>
<path d="M1118.88 1247.01C1182.97 1228.94 1303.31 1149.64 1271.92 977.004C1234.93 1097.19 1253.57 1124.43 1118.88 1247.01Z" fill="#FFF7CE"/>
<path d="M1030.88 738.656C1056.27 696.936 1069.29 680.535 1072.63 677.55C1078.61 690.215 1088.23 714.862 1078.84 712.125C1069.45 709.388 1032.45 770.874 1013.91 800.563C1006.45 809.692 996.644 828.296 970.994 828.312C907.797 831.327 885.558 848.04 891.032 859.795C878.935 847.012 891.569 821.187 907.473 818.762C919.367 816.947 980.491 812.315 986.023 808.311C1000.41 797.899 1008.7 783.396 1030.88 738.656Z" fill="black"/>
<path d="M1113.55 898.963C1117.94 884.61 1124.4 801.738 1127.08 762.097L1139.54 767.3C1137.49 801.752 1129.44 876.144 1127.45 895.543C1125.45 914.942 1117.54 924.231 1116.1 924.425C1109.39 930.947 1073.59 950.694 1034.42 943.859C1085.23 937.703 1108.07 916.905 1113.55 898.963Z" fill="black"/>
<path d="M1238.16 845.073C1233.42 839.344 1200.65 839.243 1184.85 839.909C1184.45 840.679 1181.02 837.244 1170.54 817.337C1221.04 813.073 1253.22 823.587 1257.99 831.111C1261.8 837.13 1263.73 850.36 1264.22 856.222L1272.05 1003C1279.93 1053.6 1297.2 1059.64 1354.45 1111.35C1287.06 1071.68 1264.66 1049.68 1255.91 1001.9L1250.88 944.837C1248.62 913.97 1242.9 850.802 1238.16 845.073Z" fill="black"/>
<path d="M1352.69 766.969C1346.35 763.191 1315.39 774.277 1300.7 780.292C1300.58 781.155 1296.22 779.088 1279.82 763.919C1326.08 742.678 1359.88 741.601 1366.84 747.059C1372.41 751.425 1378.55 763.225 1380.92 768.579L1436.28 904.113C1460.26 949.078 1478.52 948.875 1549.44 978.034C1472.89 963.672 1444.56 950.598 1420.69 908.592L1397.3 856.572C1385.07 828.278 1359.04 770.746 1352.69 766.969Z" fill="black"/>
<path d="M1130.01 593.2C1112.78 595.515 1091.17 623.924 1082.52 637.84C1080.26 644.937 1078.28 655.824 1088.42 642.59C1098.57 629.355 1116.45 618.384 1124.12 614.553C1125.62 614.364 1129.27 614.727 1131.91 617.69C1134.56 620.653 1131.28 679.71 1129.31 708.867C1134.68 717.061 1146.33 733.336 1149.92 732.883C1153.51 732.429 1152.68 670.137 1151.82 639.047C1151.73 622.8 1147.25 590.886 1130.01 593.2Z" fill="black"/>
<path d="M1032.2 647.027C1058.05 594.627 1075.27 479.896 937.345 440.169C1044.73 475.21 1045.32 592.675 1032.2 647.027Z" fill="black"/>
<path d="M1031.56 614.67C1013.95 559.459 947.725 468.999 823.693 548.845C923.071 489.439 1003.68 567.976 1031.56 614.67Z" fill="black"/>
<path d="M1312.27 772.382C1364.61 811.767 1376.01 842.307 1375.16 852.653C1386.04 904.003 1338.42 918.12 1313.25 918.76C1293.96 918.659 1244.82 910.505 1202.66 878.69C1160.5 846.875 1149.29 810.377 1148.96 796.105C1127.06 787.633 1082.15 759.699 1077.64 715.739C1041.78 725.281 1006.8 715.639 993.799 709.625C970.22 698.833 919.29 666.989 904.198 625.949C943.706 604.849 990.688 601.944 1009.24 603.129C1042.44 605.111 1108.85 622.088 1108.87 674.145C1158.62 681.881 1180.88 724.198 1185.79 744.39C1206.14 737.31 1259.93 732.997 1312.27 772.382Z" fill="black"/>
<path d="M1363.44 886.007C1367.57 853.719 1347.42 781.197 1233.74 749.412C1325.78 803.877 1358.55 863.169 1363.44 886.007Z" fill="white"/>
<path d="M994.065 616.768C1041.59 613.156 1067.32 642.441 1074.24 657.534C1051.4 634.152 1021.49 621.734 1003.08 630.331C988.348 637.209 982.503 635.567 981.422 633.887C977.926 629.648 975.56 620.289 994.065 616.768Z" fill="white"/>
<path d="M964.483 1026.38C956.338 1029.66 941.313 1039.17 928.047 1053.61C924.467 1057.46 921.254 1061.6 918.466 1065.88C923.31 1064.09 927.936 1061.36 932.369 1057.81C948.476 1044.9 959.532 1033.24 964.483 1026.38ZM918.734 958.277C918.455 957.372 918.033 956.791 917.508 956.553C909.245 953.361 875.541 971.613 847.634 1021.61C842.296 1031.15 841.682 1039.31 845.949 1046.6C847.866 1049.88 850.761 1052.95 854.418 1055.65C886.995 1019.31 913.085 986.661 917.482 971.236C919.264 965.059 919.448 960.589 918.734 958.277ZM629.539 1272.57C656.591 1246.52 799.778 1115.46 842.886 1068.36C838.019 1064.55 834.063 1060.19 831.262 1055.42C826.3 1046.67 822.458 1032.53 832.941 1013.72C860.369 964.64 901.236 931.931 924.035 940.828C929.407 942.884 940.853 950.418 933.746 975.431C928.59 993.35 902.063 1027.18 869.829 1063.51C878.068 1066.39 887.666 1068.17 897.783 1068.57C902.182 1059.48 911.284 1043.78 918.734 1035.67C935.271 1017.73 962.354 1002.47 977.505 1009.93C981.366 1011.84 983.69 1015.54 984.193 1019.64C985.493 1034.22 958.741 1057.97 942.689 1070.82C932.235 1079.25 920.946 1084.06 909.049 1085.22C907.024 1091.52 906.219 1097.47 906.861 1102.49C907.423 1107.13 909.262 1110.27 912.201 1112L903.262 1126.57C895.937 1122.24 891.523 1114.93 890.108 1105.18C889.32 1099 889.895 1092.2 891.648 1085.13C879.057 1084.15 867.468 1081.35 857.65 1077.06C805.66 1134.2 652.195 1273.82 641.106 1284.5L629.539 1272.57Z" fill="black"/>
<path d="M1003.73 1064.9C996.153 1068.89 982.725 1078.73 967.306 1093.75C963.51 1097.46 960.533 1101.35 958.421 1105.33C963.598 1102.8 968.666 1099.83 973.426 1096.41C988.835 1085.33 999.587 1072.46 1003.73 1064.9ZM1076.79 1112.66C1076.48 1111.59 1071.87 1109.45 1059.86 1111.82C1043.06 1115.14 1006.94 1137.54 966.537 1165.79C968.492 1168.17 970.653 1170.2 972.957 1171.8C981.263 1177.63 991.508 1177.99 1003.42 1172.93C1056.62 1150.28 1079.05 1120.38 1076.79 1112.66ZM699.401 1351.39C704.278 1347.45 876.972 1208.99 944.197 1161.19C940.281 1151.89 937.911 1141.18 937.471 1129.82C929.131 1131.34 921.222 1131.54 914.338 1130.23C904.959 1128.48 897.854 1123.97 893.769 1117.28L908.306 1108.21C910.329 1111.59 914.67 1113.03 917.961 1113.65C923.761 1114.74 930.833 1114.3 938.408 1112.56C940.444 1101.33 946.227 1091.09 955.7 1081.85C967.503 1070.36 996.598 1043.83 1011.9 1046.15C1016.02 1046.76 1019.29 1049.11 1021.11 1052.74C1028.01 1067.21 1013.52 1090.68 993.118 1105.33C984.199 1111.73 964.207 1121.58 954.313 1125.17C954.347 1134.53 955.871 1143.18 958.549 1151.07C999.591 1122.54 1037.75 1099.08 1057.04 1095.27C1083.85 1089.97 1091.33 1100.21 1093.04 1107.66C1099.44 1130.32 1062.8 1165.78 1009.66 1188.41C987.66 1197.77 972.131 1192.13 962.991 1185.76C959.128 1183.05 955.637 1179.64 952.565 1175.67C899.51 1213.57 739.371 1340.34 709.817 1364.36L699.401 1351.39Z" fill="black"/>
</svg>
