<?xml version="1.0" standalone="no"?>
<!DOCTYPE svg PUBLIC "-//W3C//DTD SVG 20010904//EN"
 "http://www.w3.org/TR/2001/REC-SVG-20010904/DTD/svg10.dtd">
<svg version="1.0" xmlns="http://www.w3.org/2000/svg"
 width="1024.000000pt" height="96.000000pt" viewBox="0 0 1024.000000 96.000000"
 preserveAspectRatio="xMidYMid meet">

<g transform="translate(0.000000,96.000000) scale(0.100000,-0.100000)"
fill="#000000" stroke="none">
<path d="M9663 855 c-100 -28 -150 -66 -188 -141 -24 -46 -27 -62 -22 -106 4
-28 10 -54 15 -57 5 -3 16 -19 25 -36 8 -16 28 -40 45 -52 37 -27 158 -69 242
-83 72 -11 167 -56 175 -81 10 -30 -14 -69 -50 -84 -67 -29 -243 -14 -320 25
-58 29 -71 26 -105 -28 -44 -70 -41 -86 26 -117 71 -34 202 -49 353 -41 133 6
197 31 264 99 71 72 74 201 8 274 -38 41 -147 88 -236 102 -69 10 -184 50
-211 72 -8 6 -14 24 -14 39 0 38 37 66 106 80 48 10 68 9 152 -10 53 -13 108
-22 121 -22 37 0 63 34 69 90 5 57 11 53 -121 82 -121 26 -229 25 -334 -5z"/>
<path d="M1420 846 c-74 -13 -186 -63 -195 -87 -3 -9 -14 -20 -24 -25 -11 -5
-35 -33 -55 -62 -72 -109 -72 -322 0 -421 61 -83 83 -100 184 -149 l75 -36
150 1 c149 0 151 0 220 33 79 37 125 73 172 133 44 56 52 78 63 165 14 104 -3
210 -41 262 -16 22 -29 44 -29 50 0 5 -13 16 -30 25 -16 9 -30 22 -30 29 0 8
-12 17 -26 20 -14 4 -42 17 -62 30 -63 41 -237 56 -372 32z m275 -151 c40 -26
105 -96 105 -113 0 -9 6 -28 13 -42 27 -52 27 -87 1 -156 -25 -68 -57 -107
-122 -152 -60 -42 -218 -44 -271 -4 -73 54 -108 99 -130 163 l-21 66 24 77
c26 81 64 133 120 162 61 33 231 33 281 -1z"/>
<path d="M9199 852 l-87 -3 -106 -109 c-59 -61 -111 -110 -116 -110 -6 0 -15
-11 -19 -24 -5 -13 -31 -36 -56 -51 -44 -25 -48 -26 -64 -11 -13 14 -16 40
-16 149 0 73 -4 138 -8 145 -9 13 -123 16 -165 4 l-23 -7 -6 -383 -5 -382 28
-2 c94 -5 151 -6 167 -1 15 4 17 17 17 94 0 89 0 91 37 135 33 39 42 44 80 44
36 0 45 -5 60 -27 10 -16 26 -38 38 -49 11 -12 52 -60 90 -107 79 -96 82 -97
214 -97 109 0 126 9 88 47 -74 74 -327 386 -327 405 0 21 154 189 248 268 28
24 52 48 52 52 0 16 -39 23 -121 20z"/>
<path d="M107 842 l-27 -3 2 -382 3 -382 90 0 90 0 5 198 c5 182 7 200 24 213
27 19 33 18 62 -11 14 -14 29 -25 35 -25 5 0 15 -12 22 -27 6 -16 35 -52 62
-80 28 -29 66 -72 85 -95 19 -23 47 -53 63 -67 15 -14 27 -29 27 -34 0 -4 16
-23 35 -42 33 -33 38 -35 104 -35 38 0 75 2 83 5 11 4 13 76 10 382 -1 207 -4
378 -6 380 -9 10 -166 11 -172 2 -3 -5 -5 -90 -4 -188 1 -157 -1 -180 -17
-200 l-18 -22 -48 23 c-26 13 -49 30 -52 39 -3 9 -18 30 -33 46 -15 16 -54 60
-87 98 -33 38 -72 80 -87 94 -16 14 -28 29 -28 34 0 4 -15 23 -34 42 -31 30
-41 35 -98 38 -35 2 -75 1 -91 -1z"/>
<path d="M2141 837 c-11 -11 5 -54 31 -80 9 -9 22 -36 29 -59 6 -23 19 -53 30
-66 10 -14 24 -43 30 -66 6 -22 18 -48 26 -58 8 -9 21 -37 28 -62 8 -25 23
-55 34 -67 10 -11 22 -37 26 -57 4 -21 15 -46 25 -57 10 -11 24 -40 30 -65 7
-25 18 -52 25 -60 8 -8 18 -27 24 -43 10 -27 11 -27 108 -27 l98 0 27 34 c15
18 30 51 34 72 3 21 17 53 29 69 12 17 26 45 29 62 4 18 15 42 25 55 9 13 23
43 31 68 7 25 22 54 32 65 10 12 21 36 24 55 4 19 17 51 29 70 13 19 28 53 34
76 6 22 20 49 31 59 11 10 20 26 20 35 0 9 5 21 11 27 18 18 -18 30 -86 28
-82 -2 -101 -15 -120 -79 -9 -30 -22 -60 -30 -66 -8 -7 -20 -31 -26 -54 -5
-22 -18 -52 -28 -66 -10 -14 -24 -43 -31 -65 -7 -22 -20 -49 -30 -60 -9 -11
-22 -39 -29 -62 -14 -50 -36 -60 -85 -39 -31 13 -37 22 -55 84 -12 38 -27 75
-35 81 -7 6 -19 33 -26 59 -8 26 -19 51 -27 55 -7 4 -20 33 -29 65 -9 31 -24
68 -33 82 -9 14 -22 34 -27 45 -10 17 -22 20 -102 21 -50 1 -95 -3 -101 -9z"/>
<path d="M7395 840 c-65 -7 -168 -56 -192 -90 -8 -11 -21 -20 -29 -20 -8 0
-19 -12 -25 -27 -5 -14 -19 -34 -29 -43 -57 -50 -52 -333 8 -399 15 -17 41
-47 57 -66 35 -41 85 -75 111 -75 10 0 28 -10 42 -22 22 -22 34 -23 185 -26
133 -3 170 -1 207 13 25 9 66 23 93 32 54 17 49 -1 50 196 0 72 -5 133 -10
138 -6 6 -39 9 -74 7 l-64 -3 -5 -101 c-3 -61 -10 -107 -18 -116 -25 -31 -69
-40 -169 -36 -86 3 -103 7 -135 29 -52 37 -108 91 -108 105 0 6 -9 23 -20 37
-24 30 -28 122 -6 152 7 11 17 36 21 55 5 22 25 51 55 80 42 40 57 48 129 64
79 18 83 18 153 0 43 -11 83 -28 96 -41 27 -27 80 -31 89 -8 3 9 18 22 34 31
43 22 39 58 -8 82 -21 11 -52 27 -70 36 -36 19 -260 29 -368 16z"/>
<path d="M8120 835 c-7 -8 -9 -141 -8 -386 l3 -374 95 0 95 0 -3 379 c-1 209
-5 382 -7 385 -12 11 -165 8 -175 -4z"/>
<path d="M3225 834 c-7 -3 -10 -138 -10 -382 l1 -377 304 3 c168 1 312 2 321
2 24 0 32 90 10 108 -11 9 -71 12 -221 12 -237 0 -236 0 -246 86 -13 114 23
136 214 132 75 -2 144 -7 153 -11 11 -6 19 -1 27 18 15 32 16 82 2 90 -6 4
-87 6 -179 5 -148 -1 -170 1 -190 17 -25 21 -36 76 -27 128 12 60 47 69 247
68 91 -1 172 -3 179 -5 14 -3 43 78 35 100 -3 9 -74 12 -307 11 -167 0 -308
-2 -313 -5z"/>
<path d="M4095 834 c-12 -5 -10 -743 2 -753 4 -4 139 -5 299 -3 l292 4 5 51
c2 29 3 55 0 60 -2 4 -92 7 -199 7 -195 0 -195 0 -220 25 l-25 25 2 293 1 292
-73 2 c-41 1 -78 0 -84 -3z"/>
<path d="M5259 830 c-3 -24 3 -745 7 -749 14 -15 19 31 22 197 1 109 7 197 14
212 6 14 15 35 21 47 l10 23 16 -23 c9 -12 14 -30 13 -39 -2 -10 1 -18 6 -18
11 0 32 130 32 200 0 27 -4 60 -10 75 -7 18 -6 31 2 45 7 10 10 21 8 23 -7 7
-140 14 -141 7z m110 -46 c7 -6 -21 -34 -34 -34 -21 0 -36 25 -23 38 10 10 44
8 57 -4z"/>
<path d="M6231 804 c-7 -16 -17 -24 -26 -21 -22 9 -73 -15 -84 -40 -6 -13 -19
-23 -30 -23 -14 0 -21 -10 -26 -36 -3 -20 -4 -39 -1 -42 3 -3 23 12 44 32 20
21 55 47 77 58 22 12 50 31 62 44 12 13 34 24 48 24 16 0 25 6 25 15 0 11 -11
15 -38 15 -32 0 -41 -5 -51 -26z"/>
<path d="M6397 823 c-26 -2 -45 -8 -42 -14 8 -12 155 -12 155 1 0 6 -9 10 -19
10 -11 0 -25 1 -33 3 -7 2 -34 2 -61 0z"/>
<path d="M6535 820 c-3 -5 -1 -10 4 -10 6 0 11 5 11 10 0 6 -2 10 -4 10 -3 0
-8 -4 -11 -10z"/>
<path d="M6670 766 c0 -10 9 -16 24 -16 16 0 26 -7 29 -22 8 -29 -1 -40 -26
-33 -12 4 -30 9 -39 11 -29 8 -23 -35 6 -46 20 -7 26 -19 33 -62 4 -29 13 -52
18 -51 38 8 44 -170 5 -180 -9 -2 -20 -17 -24 -32 -8 -32 -67 -95 -88 -95 -9
0 -22 -10 -30 -22 -13 -20 -25 -22 -134 -26 -94 -3 -123 -1 -135 10 -36 35
-78 58 -85 47 -6 -11 31 -48 49 -49 4 0 7 -11 7 -25 0 -25 1 -25 80 -25 47 0
80 -4 80 -10 0 -5 -5 -10 -11 -10 -5 0 -7 -5 -4 -10 3 -6 1 -10 -6 -10 -9 0
-10 -3 -2 -11 20 -20 119 -12 187 15 35 14 72 26 81 26 8 0 28 8 43 17 33 20
102 93 102 107 0 6 11 19 24 31 23 19 25 26 27 145 3 168 1 190 -13 190 -14 0
-48 54 -48 76 0 8 -10 14 -24 14 -14 0 -32 10 -43 25 -22 30 -83 46 -83 21z"/>
<path d="M6017 622 c-10 -15 -17 -190 -10 -246 11 -81 33 -87 34 -9 1 32 4 72
8 88 4 17 2 45 -3 63 -7 23 -6 43 1 62 8 20 8 31 0 39 -13 13 -24 14 -30 3z"/>
<path d="M6160 614 c0 -8 5 -12 10 -9 6 4 8 11 5 16 -9 14 -15 11 -15 -7z"/>
<path d="M6110 462 c0 -28 5 -54 11 -58 7 -4 9 10 4 47 -9 71 -15 75 -15 11z"/>
<path d="M6147 354 c-10 -10 14 -64 29 -64 11 0 13 7 8 28 -10 42 -21 52 -37
36z"/>
<path d="M6068 290 c-7 -45 3 -68 21 -46 9 11 10 20 3 29 -5 6 -12 21 -14 32
-3 14 -6 9 -10 -15z"/>
<path d="M6120 205 c0 -16 16 -20 24 -6 3 5 -1 11 -9 15 -9 3 -15 0 -15 -9z"/>
<path d="M5470 180 c-26 -16 12 -22 172 -23 148 -2 153 -3 163 -24 5 -13 15
-23 21 -23 12 0 25 58 17 73 -6 10 -355 8 -373 -3z"/>
<path d="M6180 154 c0 -16 9 -18 28 -5 10 6 9 10 -7 14 -14 3 -21 0 -21 -9z"/>
</g>
</svg>
